<?xml version="1.0" encoding="UTF-8" standalone="no"?>
<!-- Created with Inkscape (http://www.inkscape.org/) -->

<svg
   xmlns:dc="http://purl.org/dc/elements/1.1/"
   xmlns:cc="http://creativecommons.org/ns#"
   xmlns:rdf="http://www.w3.org/1999/02/22-rdf-syntax-ns#"
   xmlns:svg="http://www.w3.org/2000/svg"
   xmlns="http://www.w3.org/2000/svg"
   xmlns:xlink="http://www.w3.org/1999/xlink"
   xmlns:sodipodi="http://sodipodi.sourceforge.net/DTD/sodipodi-0.dtd"
   xmlns:inkscape="http://www.inkscape.org/namespaces/inkscape"
   width="2000"
   height="2000"
   viewBox="0 0 529.16665 529.16668"
   version="1.1"
   id="svg8"
   inkscape:version="0.92.4 (5da689c313, 2019-01-14)"
   sodipodi:docname="adlius.svg">
  <defs
     id="defs2" />
  <sodipodi:namedview
     id="base"
     pagecolor="#ffffff"
     bordercolor="#666666"
     borderopacity="1.0"
     inkscape:pageopacity="0.0"
     inkscape:pageshadow="2"
     inkscape:zoom="4.0727392"
     inkscape:cx="525.70835"
     inkscape:cy="1146.1026"
     inkscape:document-units="mm"
     inkscape:current-layer="layer1"
     showgrid="false"
     inkscape:window-width="1920"
     inkscape:window-height="1017"
     inkscape:window-x="-8"
     inkscape:window-y="-8"
     inkscape:window-maximized="1"
     units="px" />
  <metadata
     id="metadata5">
    <rdf:RDF>
      <cc:Work
         rdf:about="">
        <dc:format>image/svg+xml</dc:format>
        <dc:type
           rdf:resource="http://purl.org/dc/dcmitype/StillImage" />
        <dc:title></dc:title>
      </cc:Work>
    </rdf:RDF>
  </metadata>
  <g
     inkscape:label="Layer 1"
     inkscape:groupmode="layer"
     id="layer1"
     transform="translate(0,232.16668)">

    <path
       style="fill:none;stroke:#000000;stroke-width:0.26458332px;stroke-linecap:butt;stroke-linejoin:miter;stroke-opacity:1"
       d="m 167.85604,42.477272 c 0,0 4.576,0.207989 7.00266,-0.277336 2.42667,-0.485352 4.43734,-0.901329 10.26134,-6.517349 5.824,-5.615995 16.15467,-17.055996 24.47467,-32.2399997 8.32,-15.1840033 2.01067,-23.9893393 2.01067,-23.9893393 0,0 1.248,2.496 2.704,2.981333 1.456,0.485333 8.18133,0.693335 9.29067,-0.554665 1.10933,-1.248002 4.71466,-4.714668 5.47733,-6.240002 0.76267,-1.525333 3.744,-9.290669 3.81334,-11.232001 0.0693,-1.941335 2.21866,-8.458671 0.97066,-15.392006 -1.248,-6.933335 -8.04267,-9.498668 -10.33067,-9.568 -2.288,-0.06933 -8.59733,-0.06933 -12.48,10.122667 -3.88267,10.192004 -6.93333,20.176006 -6.93333,20.176006 0,0 -11.50934,-8.87467 -11.71734,-17.264004 -0.208,-8.389334 -14.56,-9.013336 -18.78934,-12.341336 -4.22933,-3.328001 -8.66667,-3.397335 -8.66667,-3.397335 0,0 -3.18933,-1.386665 -0.76266,-5.893334 2.42667,-4.506667 3.67467,-7.072 0.90133,-6.170668 -2.77333,0.901335 -4.92267,1.664001 -5.06133,3.258666 -0.13867,1.594668 -0.48534,1.941336 0.832,3.674669 1.31733,1.733333 3.25866,4.021335 3.25866,4.021335 0,0 -10.816,0.693333 -12.13333,-1.04 -1.31733,-1.733336 -3.88267,-5.061336 -3.05067,-5.824003 0.832,-0.762667 -3.744,0.554667 -3.46667,2.010667 0.27734,1.456002 -8.736,2.842667 -10.46933,-0.831998 -1.73334,-3.674669 -2.42667,-9.845337 -4.16,-9.08267 -1.73334,0.762667 -9.49867,4.645335 -12.54934,9.013336 -3.05067,4.368 -3.05067,14.352002 -2.84267,16.501337 0.208,2.149332 2.47049,11.894005 -0.77774,15.207194 -3.24822,3.313187 0.90951,7.860699 0.90951,7.860699 0,0 1.62411,-3.378152 5.65191,-2.403684 4.02779,0.974466 3.57304,-3.443118 2.66354,-3.832905 -0.9095,-0.389786 -8.25049,-2.143826 -9.8746,1.559148 -1.62411,3.702976 6.23659,9.614741 6.23659,9.614741 0,0 2.13438,-5.447564 10.25493,-4.473096 8.12056,0.974466 3.25768,6.357067 3.25768,6.357067 0,0 -7.66581,3.378152 -9.28992,2.143826 -1.62411,-1.234324 -2.85844,-2.598579 -1.23433,-4.222689 1.62412,-1.624113 2.2088,-2.143829 3.37816,-2.208792 1.16936,-0.06497 1.23432,-0.06497 1.23432,-0.06497 0,0 -2.07886,4.677442 1.88397,4.612479 3.96284,-0.06497 5.00227,-3.183261 5.00227,-3.183261 0,0 -0.64965,-4.09276 -6.23659,-2.728507 -5.58695,1.364255 -6.62638,2.923402 -6.75631,4.157726 -0.12993,1.234326 0.84454,2.988365 1.36426,5.132194 0.51971,2.143826 1.23432,1.16936 2.59857,9.224954 1.36426,8.0555945 4.61248,16.5659384 8.83517,20.5287697 4.22269,3.9628343 9.54978,9.3548833 11.56368,10.9789963 2.01389,1.62411 9.93956,1.559147 11.49871,1.16936 1.55914,-0.389786 12.99289,-8.250488 16.89076,-13.5775746 3.89787,-5.3270838 -15.13672,2.4686496 -15.13672,2.4686496 0,0 -11.56368,6.561413 -15.00679,3.962834 -3.44312,-2.598579 -5.78184,-4.157726 -5.1322,-5.5219811 0.64965,-1.3642525 -0.065,-1.6890761 -0.065,-1.6890761 0,0 -7.99063,1.5591472 -8.05559,-5.8467995 -0.065,-7.4059494 1.36425,-19.6842353 3.50808,-24.4266403 2.14382,-4.742407 1.94893,-6.171625 -0.065,-7.925665 -2.0139,-1.754042 8.0556,3.508082 13.38268,2.46865 5.32709,-1.039431 3.50808,-2.338721 3.50808,-2.338721 0,0 0.065,-5.002265 7.08113,-7.925665 7.01616,-2.923402 11.82353,-0.454752 10.45928,0.974466 -1.36426,1.429218 -5.13219,4.742407 -7.01616,4.547513 -1.88397,-0.194893 -3.63801,-3.573045 -3.31319,-4.677442 0.32482,-1.104395 -5.45702,3.443118 -5.97673,5.067228 -0.51972,1.624113 1.62411,2.208792 8.05559,0.324824 6.43148,-1.883971 10.13446,-6.10666 10.13446,-6.691341 0,-0.584679 0.84454,-6.366518 0.84454,-6.366518 0,0 -11.17389,-3.313187 -26.24565,3.18326 -15.07175,6.496447 -5.26212,-6.10666 4.54752,-6.886234 9.80963,-0.779573 18.25501,0.259858 20.26891,1.819005 2.0139,1.559148 1.23432,1.819006 1.23432,1.819006 l -1.36425,7.146091 c 0,0 -4.67744,-5.586944 -11.43375,-2.858437 -6.7563,2.728508 -7.53587,4.872334 -7.92566,8.055594 -0.38979,3.183258 2.53361,3.832903 -0.71461,5.197158 -3.24823,1.364252 -10.7841,-2.273758 -7.92566,1.364252 2.85843,3.638011 12.01842,13.05786 13.25274,16.371046 1.23433,3.3131895 2.59858,7.5358785 0.32483,9.41984944 -2.27376,1.88396826 -6.30156,3.05332866 -9.09503,2.92339976 -2.79347,-0.129929 -6.95119,6.10666 -6.95119,6.10666 0,0 1.42921,3.1832578 4.48254,2.7285078 3.05333,-0.454753 8.38042,-1.8190053 15.9163,-4.3526209 7.53587,-2.5336129 10.7841,-1.6890735 12.92793,-3.1832576 2.14382,-1.4941814 -2.79348,-5.0672285 -8.9651,-8.5753097 -6.17163,-3.5080813 -6.30155,-4.3526181 -6.30155,-4.3526181 0,0 11.17388,2.1438262 17.28054,10.13445703 6.10666,7.99062827 9.09503,14.48707527 7.08113,17.54040327 -2.0139,3.053332 -1.88397,3.832905 -1.88397,3.832905 0,0 2.07886,-6.626375 0.64965,-10.524243 -1.42922,-3.8978685 -3.76794,-4.0277975 -3.76794,-4.0277975 0,0 -0.97447,11.8235335 -8.12056,16.7608325 -7.14609,4.9373 -13.51261,5.262121 -15.98126,4.482547 -2.46865,-0.779573 -2.85844,-1.754039 -3.37815,-4.09276 -0.51972,-2.338721 -1.29929,-2.988365 -1.29929,-2.988365 0,0 1.10439,5.132191 2.46865,7.016162 1.36425,1.883968 4.09276,0.779574 4.48255,1.494182 0.38978,0.71461 1.68907,8.510333 4.61247,9.48482 2.9234,0.97446 5.00227,2.403686 7.66581,2.403686 2.66354,0 4.9373,1.234308 8.44538,-0.129936 3.50808,-1.364245 12.40821,-8.965089 16.63091,-14.422112 4.22269,-5.457016 18.31998,-22.6076352 19.35941,-28.3894715 1.03943,-5.781839 3.18326,-15.3316145 -0.25986,-19.3594115 -3.44312,-4.027797 0.25986,0.194892 0.25986,0.194892 0,0 1.23432,3.18326 5.6519,2.858437 4.41759,-0.324821 10.13446,-2.533613 12.27829,-8.510344 2.14383,-5.976731 5.32709,-18.190051 4.80737,-22.997422 -0.51971,-4.807371 -3.89787,-25.790895 -3.89787,-25.790895 0,0 -8.96509,-36.899811 -35.14578,-42.356831 -26.18067,-5.45701 -45.02037,-5.71687 -54.31029,-1.49418 -9.28992,4.22269 -19.16452,10.19942 -22.41274,12.34325 -3.24822,2.14383 -4.22269,-0.64965 -4.22269,-0.64965 0,0 -14.42211,6.17163 -13.18779,21.633167 1.23433,15.461544 0.1949,15.526509 5.97673,22.022956 5.78184,6.496447 7.40595,6.756305 7.60085,8.380415 0.19489,1.624113 1.10439,7.535878 1.10439,7.535878 0,0 0.45475,3.832905 0,6.10666 -0.45475,2.273758 -1.88397,2.663545 -1.88397,2.663545 l -0.84454,1.429218 -0.19489,1.494182 0.51972,2.403686 1.49418,2.598579 4.87234,4.872334 1.36425,0.909502 3.11829,8.315452 1.36426,7.3409865 c 0,0 2.20879,9.54977544 4.35262,13.1228225 2.14382,3.5730444 12.47317,13.577572 12.47317,13.577572 l 3.24823,3.053329 2.07886,0.779574 2.07886,6.431483 1.68908,1.624111 3.11829,0.389787 0.84454,2.143828 1.55915,4.937297 1.68907,2.14384 3.50809,1.559136 3.89786,1.29929 h 0.84454 v 0 0"
       id="path42"
       inkscape:connector-curvature="0" />
  </g>
  <g
     inkscape:groupmode="layer"
     id="layer2"
     inkscape:label="Layer 2" />
</svg>
