<?xml version="1.0" encoding="UTF-8" standalone="no"?>
<!-- Created with Inkscape (http://www.inkscape.org/) -->

<svg
   xmlns:dc="http://purl.org/dc/elements/1.1/"
   xmlns:cc="http://creativecommons.org/ns#"
   xmlns:rdf="http://www.w3.org/1999/02/22-rdf-syntax-ns#"
   xmlns:svg="http://www.w3.org/2000/svg"
   xmlns="http://www.w3.org/2000/svg"
   xmlns:sodipodi="http://sodipodi.sourceforge.net/DTD/sodipodi-0.dtd"
   xmlns:inkscape="http://www.inkscape.org/namespaces/inkscape"
   width="2000"
   height="4000"
   viewBox="0 0 529.16667 1058.3332"
   version="1.1"
   id="svg23"
   inkscape:version="0.92.4 (5da689c313, 2019-01-14)"
   sodipodi:docname="dear.svg">
  <defs
     id="defs17" />
  <sodipodi:namedview
     id="base"
     pagecolor="#ffffff"
     bordercolor="#666666"
     borderopacity="1.0"
     inkscape:pageopacity="0.0"
     inkscape:pageshadow="2"
     inkscape:zoom="0.56568542"
     inkscape:cx="624.85879"
     inkscape:cy="621.19135"
     inkscape:document-units="mm"
     inkscape:current-layer="layer1"
     showgrid="false"
     inkscape:window-width="1920"
     inkscape:window-height="1017"
     inkscape:window-x="-8"
     inkscape:window-y="-8"
     inkscape:window-maximized="1"
     units="px" />
  <metadata
     id="metadata20">
    <rdf:RDF>
      <cc:Work
         rdf:about="">
        <dc:format>image/svg+xml</dc:format>
        <dc:type
           rdf:resource="http://purl.org/dc/dcmitype/StillImage" />
        <dc:title></dc:title>
      </cc:Work>
    </rdf:RDF>
  </metadata>
  <g
     inkscape:label="Layer 1"
     inkscape:groupmode="layer"
     id="layer1"
     transform="translate(0,761.33323)">
    <path
       style="fill:#000000;stroke-width:1.55625975"
       d="m 226.15263,288.94292 c -15.4542,-4.02959 -43.25051,-17.88467 -56.80349,-28.31371 -42.16511,-32.44609 -63.75244,-86.26516 -65.72621,-163.861174 -1.14864,-45.157076 3.70631,-71.40769 18.694,-101.0778041 l 6.28907,-12.4500849 0.19713,-62.250401 c 0.21363,-67.488046 1.61573,-84.052076 11.06423,-130.708556 2.2973,-11.34405 3.7195,-22.49824 3.243,-25.43458 -0.9906,-6.10443 -9.02331,-16.9303 -27.45208,-36.99793 -7.27553,-7.92251 -15.59331,-18.31061 -18.48398,-23.08466 -12.079531,-19.94979 -16.90945,-43.54343 -14.09002,-68.82826 0.896404,-8.03907 1.186105,-16.01459 0.643747,-17.72335 -0.583791,-1.83941 -5.541028,-5.38692 -12.15151,-8.6959 -15.972675,-7.99536 -28.690867,-17.46452 -40.303922,-30.00769 -28.8612259,-31.17278 -33.5884134,-67.16123 -15.743999,-119.85991 5.92507,-17.49812 31.833209,-79.02315 35.872628,-85.18808 3.839175,-5.85932 7.45357,-4.00723 7.45357,3.81938 0,3.62014 0.309476,6.58117 0.687732,6.58007 0.378232,-10e-4 13.063709,-12.25756 28.189967,-27.23655 17.940107,-17.76547 28.629897,-27.23455 30.745577,-27.23455 2.95301,0 3.09237,0.43304 1.55699,4.83745 -1.74389,5.00254 -8.36402,12.60542 -38.143575,43.80602 -10.063358,10.5436 -20.261241,23.00639 -24.066632,29.41182 -6.567177,11.0542 -20.589877,48.8677 -19.047507,51.36332 1.907087,3.08574 4.29663,0.12668 16.852999,-20.86949 13.70471,-22.91638 16.869079,-27.62361 18.569561,-27.62361 2.542467,0 0.542663,13.46621 -3.714438,25.01209 -2.590526,7.02589 -4.410185,13.07418 -4.043706,13.44068 0.589247,0.58924 28.045415,-11.62352 125.314398,-55.74116 36.20619,-16.42179 38.36669,-16.29154 19.94974,1.20271 -15.29993,14.53346 -36.22562,28.23815 -62.51491,40.94238 -12.02343,5.81029 -31.31504,15.13045 -42.87027,20.71146 -24.013053,11.59798 -60.358374,35.05392 -68.806955,44.40552 -6.808673,7.53637 -8.664538,15.21675 -6.072183,25.12917 5.022035,19.20266 18.714852,36.65088 39.577669,50.43219 12.730091,8.4091 25.874332,15.64911 26.707043,14.71058 0.242852,-0.2737 -1.527046,-12.40302 -3.93308,-26.95403 -2.464354,-14.90379 -3.787545,-27.05683 -3.030196,-27.8314 2.231104,-2.28183 7.203358,7.72697 14.937952,30.06905 9.40198,27.15846 10.95426,30.47462 16.41657,35.07084 8.85722,7.45287 25.90715,9.41083 33.04657,3.79496 7.67982,-6.04095 8.97007,-10.76994 14.16897,-51.93265 1.29281,-10.23577 2.42033,-22.49131 2.50567,-27.23456 0.1831,-10.18558 1.57812,-15.94559 4.06213,-16.7736 3.59293,-1.19764 4.80873,5.6433 6.70347,37.71851 1.52129,25.75233 1.52961,35.981 0.0393,48.24403 -4.00987,32.99445 -4.05983,31.82494 1.727,40.4174 3.00931,4.46829 8.44979,9.7272 12.88001,12.45008 7.22339,4.43964 8.62795,4.72062 24.12201,4.82563 9.0486,0.0613 22.09871,0.66559 29.00022,1.34278 12.00986,1.17843 12.74243,1.06423 17.07418,-2.66178 4.3526,-3.74393 4.51284,-4.36162 4.18382,-16.12724 -0.36105,-12.90969 -5.98001,-81.38441 -7.47187,-91.05465 -0.98434,-6.38054 1.23531,-8.94654 5.02113,-5.80458 3.70583,3.07557 5.04838,7.69796 10.73006,36.94301 5.52689,28.44849 7.9034,34.47045 13.58661,34.42781 4.38335,-0.0328 26.67801,-11.94744 39.5685,-21.14588 18.44435,-13.16163 20.42097,-23.9741 10.92362,-59.75361 -7.43713,-28.01785 -13.26943,-43.5307 -25.32183,-67.35158 -7.76423,-15.34551 -9.55381,-20.08039 -7.83832,-20.73868 10.52645,-4.03939 41.87237,44.69885 56.1024,87.23084 5.88329,17.58453 10.55984,27.96213 13.38859,29.71039 3.23342,1.99837 15.374,-4.12758 20.84334,-10.51726 8.15645,-9.52903 10.9859,-19.39709 10.83448,-37.78696 -0.11839,-14.40502 -1.42087,-20.74763 -17.50795,-85.2716 -9.55882,-38.33995 -17.37973,-70.68827 -17.37973,-71.88515 0,-3.26282 2.94103,-4.43958 5.59366,-2.23809 6.46176,5.36278 18.09613,26.35976 22.35283,40.34098 10.46513,34.37305 27.50793,101.8053 28.90959,114.38507 0.57221,5.13566 1.69452,10.56312 2.49401,12.06101 3.30859,6.19913 17.89112,1.41788 24.91913,-8.17034 6.05006,-8.25411 7.92581,-37.34026 3.61296,-56.02537 -1.31789,-5.70968 -7.48364,-20.38066 -14.15582,-33.68282 -7.66633,-15.28422 -12.10493,-26.08674 -12.629,-30.73613 -1.05724,-9.38007 1.9572,-9.57378 8.63559,-0.5549 5.91309,7.98534 12.28586,15.17354 13.45227,15.17354 1.71199,0 0.73032,-4.55001 -5.37225,-24.90015 -3.42378,-11.4172 -6.22502,-21.69044 -6.22502,-22.82938 0,-1.1389 1.41606,-2.07079 3.14676,-2.07079 5.26966,0 11.68033,12.58046 21.71843,42.62049 6.44563,19.28938 12.37294,33.59414 18.77379,45.30819 19.006,34.78244 20.945,39.47057 20.91889,50.57843 -0.0317,13.45005 -4.76544,22.71823 -17.07712,33.43462 -21.06718,18.33742 -38.83664,29.47643 -129.1844,80.98083 -52.84705,30.12646 -67.03572,40.27275 -63.04391,45.08262 1.38418,1.66782 5.89228,-0.43016 23.04482,-10.72446 42.14218,-25.29218 53.34222,-31.02944 61.97134,-31.74503 16.45884,-1.3649 18.53509,8.84381 7.69174,37.81928 -10.22559,27.32464 -20.14647,46.58975 -28.07513,54.51843 -6.83001,6.83002 -26.45881,17.61234 -36.69743,20.15832 -2.19089,0.5448 -5.95573,2.56318 -8.36628,4.4853 -4.37744,3.49044 -4.37952,3.50119 -1.69084,8.7005 3.52479,6.81623 7.51748,10.39436 38.62213,34.61194 26.20038,20.39922 30.66559,25.28411 30.66559,33.54765 0,10.33512 -17.81096,29.56567 -34.79705,37.57044 -12.70949,5.98941 -22.91217,7.94306 -41.4815,7.94306 -17.96042,0 -17.929,-0.0254 -19.53511,15.72498 -1.79674,17.61939 3.73286,42.738843 14.82777,67.358087 3.13453,6.955393 6.12603,10.833615 11.12256,14.419274 13.78375,9.891661 40.61309,34.488905 47.14724,43.22477 15.30718,20.4649972 26.2385,46.964122 33.04411,80.103744 3.28931,16.017341 4.02446,23.889254 4.01154,42.955205 -0.0147,24.24541 -3.49896,58.64112 -7.5506,74.57602 -10.84723,42.6616 -61.14031,89.8896 -108.66782,102.04509 -16.68992,4.26857 -46.53636,4.22695 -63.08461,-0.0881 z"
       id="path47"
       inkscape:connector-curvature="0"
       sodipodi:nodetypes="csscccscscscssscscsscscccsscssssccscscsssscccccscscsssscccscscccsscscccccccsssscscsscscsscscsssscsssscsscc" />
  </g>
</svg>
